<mxfile host="app.diagrams.net" agent="Mozilla/5.0 (Windows NT 10.0; Win64; x64) AppleWebKit/537.36 (KHTML, like Gecko) Chrome/134.0.0.0 Safari/537.36" version="26.1.3">
  <diagram name="Page-1" id="560dyChfy2TbsKWXBWVY">
    <mxGraphModel dx="880" dy="460" grid="1" gridSize="10" guides="1" tooltips="1" connect="1" arrows="1" fold="1" page="1" pageScale="1" pageWidth="850" pageHeight="1100" math="0" shadow="0">
      <root>
        <mxCell id="0" />
        <mxCell id="1" parent="0" />
        <mxCell id="ipepy4m8POAvkaWzJrOa-3" value="&lt;h1&gt;&lt;font face=&quot;Comic Sans MS&quot; style=&quot;color: rgb(255, 51, 51); line-height: 150%;&quot;&gt;&lt;b&gt;Start&lt;/b&gt;&lt;/font&gt;&lt;/h1&gt;" style="ellipse;whiteSpace=wrap;html=1;fillColor=#d5e8d4;strokeColor=#82b366;" vertex="1" parent="1">
          <mxGeometry x="310" y="10" width="140" height="80" as="geometry" />
        </mxCell>
        <mxCell id="ipepy4m8POAvkaWzJrOa-4" value="" style="endArrow=none;html=1;rounded=0;entryX=0.5;entryY=1;entryDx=0;entryDy=0;" edge="1" parent="1" target="ipepy4m8POAvkaWzJrOa-3">
          <mxGeometry width="50" height="50" relative="1" as="geometry">
            <mxPoint x="380" y="160" as="sourcePoint" />
            <mxPoint x="450" y="220" as="targetPoint" />
          </mxGeometry>
        </mxCell>
        <mxCell id="ipepy4m8POAvkaWzJrOa-7" value="" style="endArrow=none;html=1;rounded=0;exitX=0;exitY=0.5;exitDx=0;exitDy=0;entryX=1;entryY=0.5;entryDx=0;entryDy=0;" edge="1" parent="1" source="ipepy4m8POAvkaWzJrOa-8" target="ipepy4m8POAvkaWzJrOa-6">
          <mxGeometry width="50" height="50" relative="1" as="geometry">
            <mxPoint x="440" y="250" as="sourcePoint" />
            <mxPoint x="440" y="190" as="targetPoint" />
          </mxGeometry>
        </mxCell>
        <mxCell id="ipepy4m8POAvkaWzJrOa-6" value="Is your number even" style="rhombus;whiteSpace=wrap;html=1;fillColor=#fa6800;fontColor=#000000;strokeColor=#C73500;" vertex="1" parent="1">
          <mxGeometry x="325" y="160" width="110" height="80" as="geometry" />
        </mxCell>
        <mxCell id="ipepy4m8POAvkaWzJrOa-8" value="&lt;h1&gt;yes&lt;/h1&gt;" style="rhombus;whiteSpace=wrap;html=1;fillColor=#fff2cc;gradientColor=#ffd966;strokeColor=#d6b656;" vertex="1" parent="1">
          <mxGeometry x="510" y="160" width="110" height="80" as="geometry" />
        </mxCell>
        <mxCell id="ipepy4m8POAvkaWzJrOa-9" value="" style="endArrow=none;html=1;rounded=0;entryX=0.564;entryY=0.017;entryDx=0;entryDy=0;entryPerimeter=0;" edge="1" parent="1" target="ipepy4m8POAvkaWzJrOa-10">
          <mxGeometry width="50" height="50" relative="1" as="geometry">
            <mxPoint x="620" y="199.5" as="sourcePoint" />
            <mxPoint x="680" y="280" as="targetPoint" />
            <Array as="points">
              <mxPoint x="680" y="240" />
            </Array>
          </mxGeometry>
        </mxCell>
        <mxCell id="ipepy4m8POAvkaWzJrOa-10" value="You can divide it by 2" style="shape=parallelogram;perimeter=parallelogramPerimeter;whiteSpace=wrap;html=1;fixedSize=1;fillColor=#b0e3e6;strokeColor=#0e8088;" vertex="1" parent="1">
          <mxGeometry x="600" y="300" width="140" height="60" as="geometry" />
        </mxCell>
        <mxCell id="ipepy4m8POAvkaWzJrOa-11" value="" style="shape=flexArrow;endArrow=classic;startArrow=classic;html=1;rounded=0;endWidth=72;endSize=31.33;fillColor=#cdeb8b;strokeColor=#36393d;" edge="1" parent="1">
          <mxGeometry width="100" height="100" relative="1" as="geometry">
            <mxPoint x="185" y="199.5" as="sourcePoint" />
            <mxPoint x="325" y="199.5" as="targetPoint" />
          </mxGeometry>
        </mxCell>
        <mxCell id="ipepy4m8POAvkaWzJrOa-13" value="" style="endArrow=none;dashed=1;html=1;dashPattern=1 3;strokeWidth=2;rounded=0;entryX=0.5;entryY=1;entryDx=0;entryDy=0;" edge="1" parent="1">
          <mxGeometry width="50" height="50" relative="1" as="geometry">
            <mxPoint x="150" y="310" as="sourcePoint" />
            <mxPoint x="150" y="240" as="targetPoint" />
          </mxGeometry>
        </mxCell>
        <mxCell id="ipepy4m8POAvkaWzJrOa-15" value="&lt;h1&gt;No&lt;/h1&gt;" style="shape=cube;whiteSpace=wrap;html=1;boundedLbl=1;backgroundOutline=1;darkOpacity=0.05;darkOpacity2=0.1;fillColor=#e6d0de;gradientColor=#d5739d;strokeColor=#996185;" vertex="1" parent="1">
          <mxGeometry x="70" y="160" width="120" height="80" as="geometry" />
        </mxCell>
        <mxCell id="ipepy4m8POAvkaWzJrOa-19" value="You can divide by 2 but there will be a remainder" style="whiteSpace=wrap;html=1;aspect=fixed;fillColor=#f8cecc;strokeColor=#b85450;" vertex="1" parent="1">
          <mxGeometry x="100" y="310" width="80" height="80" as="geometry" />
        </mxCell>
        <mxCell id="ipepy4m8POAvkaWzJrOa-25" value="" style="shape=flexArrow;endArrow=classic;html=1;rounded=0;exitX=1;exitY=0.5;exitDx=0;exitDy=0;endWidth=14;endSize=6.33;" edge="1" parent="1" source="ipepy4m8POAvkaWzJrOa-19">
          <mxGeometry width="50" height="50" relative="1" as="geometry">
            <mxPoint x="200" y="400" as="sourcePoint" />
            <mxPoint x="370" y="350" as="targetPoint" />
          </mxGeometry>
        </mxCell>
        <mxCell id="ipepy4m8POAvkaWzJrOa-26" value="" style="shape=flexArrow;endArrow=classic;html=1;rounded=0;exitX=1;exitY=0.5;exitDx=0;exitDy=0;endWidth=14;endSize=6.33;" edge="1" parent="1">
          <mxGeometry width="50" height="50" relative="1" as="geometry">
            <mxPoint x="605" y="349.5" as="sourcePoint" />
            <mxPoint x="435" y="349.5" as="targetPoint" />
          </mxGeometry>
        </mxCell>
        <mxCell id="ipepy4m8POAvkaWzJrOa-27" value="&lt;h2&gt;End&lt;/h2&gt;" style="shape=or;whiteSpace=wrap;html=1;direction=south;fillColor=#6a00ff;strokeColor=#3700CC;fontColor=#ffffff;" vertex="1" parent="1">
          <mxGeometry x="360" y="320" width="80" height="60" as="geometry" />
        </mxCell>
      </root>
    </mxGraphModel>
  </diagram>
</mxfile>
